# xmcd
#
# Track frame offsets:
#	150
#	19224
#	32620
#	33709
#	47552
#	62951
#	63840
#	81094
#	98550
#	99384
#	116093
#	132001
#	133192
#	149960
#	164297
#	165296
#	178783
#	194965
#	195930
#	213343
#	225605
#	226608
#	240304
#	241289
#	255710
#	273040
#
# Disc length: 3656 seconds
#
# Revision: 0
# Processed by: cddbd v1.5.2PL0 Copyright (c) Steve Scherf et al.
# Submitted via: dBpowerAMP V4.0
#
DISCID=650e461a
DTITLE=Country 88 - Summer 2014
DYEAR=2014
DGENRE=Country
TTITLE0=Drunk on a Plane - Dierks Bentley
TTITLE1=Where a Farm used to be - Gord Bamford
TTITLE2=ID 1
TTITLE3=Tuned Into You - Leanne Pearson
TTITLE4=Cold One - Eric Church
TTITLE5=ID - 2
TTITLE6=Song About a Girl - Eric Paslay
TTITLE7=Bounty - Dean Brody
TTITLE8=ID - 3
TTITLE9=This is how we roll - Florida Georga Line
TTITLE10=Friends of Mine - Jason Blaine
TTITLE11=ID - 4
TTITLE12=Sharp Dressed Man - Eric Paisley
TTITLE13=Beachin - Jake Owen
TTITLE14=ID - 5
TTITLE15=The Road Hammers - MUD
TTITLE16=3 2 1 - Pret Kissel
TTITLE17=ID - 6
TTITLE18=We Are Tionight - Billy Currington
TTITLE19=Cheap Wine and Cigarettes - Jess Moskaluke
TTITLE20=ID - 7
TTITLE21=River Bank - Brad Paisley
TTITLE22=ID - 8
TTITLE23=Shake it Like it's Saturday Night - Doc Walker
TTITLE24=Yeah - Joe Nichols
TTITLE25=ID - 9
EXTD=
EXTT0=
EXTT1=
EXTT2=
EXTT3=
EXTT4=
EXTT5=
EXTT6=
EXTT7=
EXTT8=
EXTT9=
EXTT10=
EXTT11=
EXTT12=
EXTT13=
EXTT14=
EXTT15=
EXTT16=
EXTT17=
EXTT18=
EXTT19=
EXTT20=
EXTT21=
EXTT22=
EXTT23=
EXTT24=
EXTT25=
PLAYORDER=
